# xmcd
#
# Track frame offsets: 
#        150
#        13318
#        29437
#        43867
#        57114
#        67761
#        79891
#        101746
#        123803
#        139271
#        151536
#        161579
#        173985
#        186248
#        207014
#        226634
#        246891
#        262857
#
# Disc length: 3694 seconds
#
# Revision: 0
# Processed by: cddbd v1.5.1PL0 Copyright (c) Steve Scherf et al.
# Submitted via: ExactAudioCopy v0.95a5
#
DISCID=e50e6c12
DTITLE=B.B.King - Let The Good Times Roll
DYEAR=1999
DGENRE=Blues
TTITLE0=Ain'tNpbody Here But Us Chickens
TTITLE1=Is You,Or Is You Ain't My Baby
TTITLE2=Beware, Brother, Beware
TTITLE3=Somebody Done Changed The  Lock On My Door
TTITLE4=Ain't That Just Like A Woman
TTITLE5=Choo Choo Ch Boogie
TTITLE6=Buzz Me
TTITLE7=Early In The Morning
TTITLE8=I'm Gonna Move To The Outskirts Of Town
TTITLE9=Jack, You're Dead
TTITLE10=Knock Me A Kiss
TTITLE11=Let The Good Times Roll
TTITLE12=Caldonia
TTITLE13=It's A Great, Great Pleasure
TTITLE14=Rusty Dusty Blues (Mama Mama Blues)
TTITLE15=Sure Had A Wonderful Time Last Night
TTITLE16=Saturday Night Fish Fry
TTITLE17=Nobody Knows You When You're Down And Out
EXTD=
EXTT0=
EXTT1=
EXTT2=
EXTT3=
EXTT4=
EXTT5=
EXTT6=
EXTT7=
EXTT8=
EXTT9=
EXTT10=
EXTT11=
EXTT12=
EXTT13=
EXTT14=
EXTT15=
EXTT16=
EXTT17=
PLAYORDER=
